HIERARCHY
ROOT hip
{
	OFFSET 0.000000 0.000000 0.000000 
	CHANNELS 6 Xposition Yposition Zposition Xrotation Zrotation Yrotation
	JOINT abdomen
	{
		OFFSET 0.000000 3.402643 0.000000 
		CHANNELS 3 Xrotation Zrotation Yrotation
		JOINT chest
		{
			OFFSET 0.000000 8.438565 -0.680529 
			CHANNELS 3 Xrotation Zrotation Yrotation
			JOINT neck
			{
				OFFSET 0.000000 10.207942 -0.272212 
				CHANNELS 3 Xrotation Zrotation Yrotation
				JOINT head
				{
					OFFSET 0.000000 3.130431 0.000000 
					CHANNELS 3 Xrotation Zrotation Yrotation
					End Site
					{
						OFFSET 0.000000 3.130435 0.000000 
					}
				}
			}
			JOINT lCollar
			{
				OFFSET 3.470700 6.669187 -0.816635 
				CHANNELS 3 Yrotation Zrotation Xrotation
				JOINT lShldr
				{
					OFFSET 3.198488 0.000000 0.000000 
					CHANNELS 3 Zrotation Yrotation Xrotation
					JOINT lForeArm
					{
						OFFSET 10.139888 0.000000 0.000000 
						CHANNELS 3 Yrotation Zrotation Xrotation
						JOINT lHand
						{
							OFFSET 8.370511 0.000000 0.000000 
							CHANNELS 3 Zrotation Yrotation Xrotation
							End Site
							{
								OFFSET 4.083176 0.000000 0.000000 
							}
						}
					}
				}
			}
			JOINT rCollar
			{
				OFFSET -3.470700 6.669187 -0.816635 
				CHANNELS 3 Yrotation Zrotation Xrotation
				JOINT rShldr
				{
					OFFSET -3.198488 0.000000 0.000000 
					CHANNELS 3 Zrotation Yrotation Xrotation
					JOINT rForeArm
					{
						OFFSET -10.139888 0.000000 0.000000 
						CHANNELS 3 Yrotation Zrotation Xrotation
						JOINT rHand
						{
							OFFSET -8.370511 0.000000 0.000000 
							CHANNELS 3 Zrotation Yrotation Xrotation
							End Site
							{
								OFFSET -4.083176 0.000000 0.000000 
							}
						}
					}
				}
			}
		}
	}
	JOINT lThigh
	{
		OFFSET 5.308129 -1.633274 1.361059 
		CHANNELS 3 Xrotation Zrotation Yrotation
		JOINT lShin
		{
			OFFSET -2.041588 -20.007561 0.000000 
			CHANNELS 3 Xrotation Zrotation Yrotation
			JOINT lFoot
			{
				OFFSET 0.000000 -19.190928 -1.224953 
				CHANNELS 3 Xrotation Yrotation Zrotation
				End Site
				{
					OFFSET 0.000000 -2.449906 4.627600 
				}
			}
		}
	}
	JOINT rThigh
	{
		OFFSET -5.308129 -1.633274 1.361059 
		CHANNELS 3 Xrotation Zrotation Yrotation
		JOINT rShin
		{
			OFFSET 2.041588 -20.007561 0.000000 
			CHANNELS 3 Xrotation Zrotation Yrotation
			JOINT rFoot
			{
				OFFSET 0.000000 -19.190928 -1.224953 
				CHANNELS 3 Xrotation Yrotation Zrotation
				End Site
				{
					OFFSET 0.000000 -2.449906 4.627600 
				}
			}
		}
	}
}
MOTION
Frames: 10
Frame Time: 0.033333
-72.351608 47.679859 66.536919 1.612599 2.274491 126.997940 0.000000 0.000000 0.000000 18.753422 -2.783653 2.228869 8.952195 -2.387883 -0.164289 18.360441 3.705536 -3.220142 8.450940 -11.164954 18.594576 -55.175331 -32.230503 25.559509 -41.860874 -13.615542 21.044050 9.478127 1.133011 -3.643694 -3.453975 10.777237 18.324167 51.518356 19.594395 24.886927 42.714886 10.123437 14.736633 -6.328279 2.641594 -3.752762 -14.999637 3.212992 1.041532 22.674643 -5.101393 1.178835 -4.862387 -0.094062 2.295056 -3.308495 -6.917902 -4.345767 26.012926 2.987937 5.076849 -19.505680 -0.326592 1.952589 
-72.229164 47.636063 66.081497 1.485597 2.323438 126.603554 0.000000 0.000000 0.000000 18.728729 -3.052346 2.266422 8.930005 -2.731835 0.231933 17.962893 3.083480 -3.095239 7.740277 -10.861305 18.472067 -55.576454 -32.480991 25.298553 -41.931145 -13.360353 20.755667 9.168030 0.955102 -3.656577 -3.485160 10.408895 18.286709 51.818127 19.343557 25.010021 42.814991 10.122752 15.523111 -6.169512 3.356649 -3.763175 -15.059179 3.035079 1.143587 23.791262 -5.096858 1.491601 -5.985573 -0.124678 2.523791 -2.946499 -7.159855 -4.489699 26.004372 2.929532 5.200021 -19.880968 -0.407643 2.297600 
-72.083313 47.661366 65.685471 1.544438 2.499093 126.483742 0.000000 0.000000 0.000000 18.908922 -3.270889 2.053730 8.969320 -3.207996 0.437177 17.938145 2.428389 -2.901681 7.638470 -11.237864 18.670450 -55.107330 -33.047230 25.264565 -42.043995 -13.495915 20.516378 9.325971 1.357480 -3.627467 -3.625378 10.193286 18.418205 51.826962 18.690235 25.219429 43.293938 9.654100 16.018150 -5.703259 4.023195 -3.767866 -14.532112 2.947166 1.339878 23.943840 -5.274176 1.425290 -6.479707 -0.162316 2.884258 -1.982405 -7.371064 -4.690562 25.308960 2.939322 5.642371 -19.966299 -0.429011 2.430681 
-71.926888 47.685146 65.261879 1.613151 2.723531 126.561424 0.000000 0.000000 0.000000 19.057091 -3.341859 1.658575 9.087135 -3.621993 0.459170 17.698980 1.620007 -2.640903 7.591060 -11.717641 18.876257 -54.463768 -33.351910 25.267944 -42.166786 -13.706157 20.436186 9.507939 1.409148 -3.627028 -3.891278 9.683508 18.508551 52.387291 17.988501 24.973351 43.413086 9.361620 16.188906 -5.649967 3.958154 -3.754745 -13.866254 2.695320 1.334133 24.265150 -5.277225 0.871425 -7.250489 -0.198046 3.216905 -0.722603 -7.483243 -4.957082 24.419197 2.890450 5.885633 -20.107765 -0.463336 2.668424 
-71.760399 47.721264 64.895805 1.339748 3.016755 126.496712 0.000000 0.000000 0.000000 19.153965 -3.293764 1.610289 9.121962 -3.714623 0.567386 17.423428 1.071169 -2.538728 7.292948 -11.389820 18.899559 -54.605694 -33.632488 25.353378 -41.782284 -13.902482 20.685474 9.220710 1.183849 -3.640665 -4.067028 9.933003 18.601799 52.060493 17.573709 24.904325 42.996918 9.392012 16.962420 -5.686879 4.973535 -3.797446 -13.544540 2.802935 1.332294 24.464045 -5.070595 1.380444 -7.744367 -0.222058 3.231849 -1.532987 -7.282430 -4.792005 26.768539 2.675472 5.933884 -19.419291 -0.486736 2.863262 
-71.560059 47.735733 64.561699 1.212662 3.055958 126.490868 0.000000 0.000000 0.000000 19.176159 -3.422507 1.593625 9.153291 -3.791008 1.127512 16.407604 1.064272 -2.061019 7.148324 -11.109574 18.888044 -54.679070 -34.127102 25.716122 -41.257229 -14.244606 20.961252 8.829998 0.755801 -3.657969 -3.983309 9.597084 18.599636 52.307224 16.254375 24.897516 43.740891 9.338194 16.894978 -6.542262 3.508331 -3.793044 -13.225905 2.771933 1.396663 24.785511 -5.086952 0.931387 -8.382379 -0.245877 3.452146 -4.761176 -7.452753 -4.469395 33.477505 2.217040 6.849176 -17.477186 -0.404103 2.710364 
-71.281319 47.756371 64.229851 1.017670 3.632241 126.803253 0.000000 0.000000 0.000000 19.415459 -3.159525 1.484297 8.985067 -3.572994 0.754406 16.884769 0.048319 -2.082803 6.671872 -10.572478 19.036528 -54.434513 -34.382725 26.030958 -41.047997 -14.585058 20.680241 9.029075 1.415435 -3.622419 -4.293461 9.679102 18.841749 52.312702 15.425224 25.145821 43.927132 9.427443 16.088099 -6.187601 3.482690 -3.774039 -12.607636 3.154726 1.573795 25.372873 -5.041559 0.044616 -9.225947 -0.277231 3.693200 -5.924955 -7.007843 -4.664813 36.846348 2.246215 6.047035 -15.694902 -0.394554 2.826315 
-70.982307 47.792744 63.881134 1.008643 4.257156 127.223846 0.000000 0.000000 0.000000 19.781824 -2.876575 1.280233 9.193981 -3.602611 0.541281 16.298851 -0.135487 -2.088643 6.153339 -10.305018 19.292315 -54.011120 -34.540802 26.063650 -40.582027 -14.961736 20.861923 9.166464 1.405267 -3.619579 -4.582825 9.992330 19.182360 52.129101 14.400530 25.076559 43.897457 9.373313 16.356176 -5.368683 1.441780 -3.662628 -11.703238 3.386772 1.671892 25.619043 -4.902458 -0.472151 -9.849422 -0.321978 3.850773 -7.245924 -6.669737 -5.077047 40.291866 2.138486 4.317575 -13.204163 -0.416097 3.553254 
-70.726601 47.784687 63.565395 0.763875 4.306259 127.118484 0.000000 0.000000 0.000000 19.723000 -2.868438 1.335294 9.011320 -3.415769 0.661361 16.045258 -0.542269 -1.838497 6.119976 -10.237701 19.228745 -53.588184 -34.485428 26.343534 -40.489372 -15.323217 21.133261 8.872920 1.414550 -3.614477 -4.784149 10.161299 19.156698 51.787579 13.039697 25.433126 44.513306 9.382678 17.075418 -5.946283 1.296510 -3.675008 -11.534686 3.493325 1.709571 26.179237 -4.825118 -0.512422 -10.694232 -0.347172 3.879665 -9.333350 -6.374896 -5.152828 43.235691 1.903936 2.711577 -10.851600 -0.399181 4.278213 
-70.426842 47.791103 63.221340 0.695340 4.325855 127.221001 0.000000 0.000000 0.000000 19.703613 -2.877983 1.118138 9.030345 -3.571305 0.628010 15.771556 0.251922 -1.882338 5.984208 -10.231526 19.204403 -52.923519 -34.175724 26.672066 -40.630482 -15.596609 20.811827 8.385432 1.117091 -3.627117 -4.856073 10.108473 19.111609 52.172337 11.814113 25.431341 44.480835 9.370432 17.043159 -5.528222 1.186765 -3.652570 -11.070283 3.543545 1.904241 26.433817 -4.976076 -0.780086 -11.402499 -0.426042 4.129901 -10.907270 -6.210437 -5.364690 44.632496 1.884506 1.230705 -9.242804 -0.406919 4.784563 
